<mxfile host="app.diagrams.net" modified="2024-01-10T10:04:01.379Z" agent="Mozilla/5.0 (Windows NT 10.0; Win64; x64) AppleWebKit/537.36 (KHTML, like Gecko) Chrome/120.0.0.0 Safari/537.36" version="22.1.18" etag="4YNPiqr1KfVQOqH27G2g" type="github">
  <diagram name="Page-1" id="74T1CZw_yVFM1DH-speU">
    <mxGraphModel>
      <root>
        <mxCell id="0" />
        <mxCell id="1" parent="0" />
      </root>
    </mxGraphModel>
  </diagram>
</mxfile>
